<?xml version="1.0" standalone="no"?>
<!DOCTYPE svg PUBLIC "-//W3C//DTD SVG 20010904//EN"
 "http://www.w3.org/TR/2001/REC-SVG-20010904/DTD/svg10.dtd">
<svg version="1.0" xmlns="http://www.w3.org/2000/svg"
 width="385.000000pt" height="385.000000pt" viewBox="0 0 385.000000 385.000000"
 preserveAspectRatio="xMidYMid meet">
<metadata>
Created by potrace 1.14, written by Peter Selinger 2001-2017
</metadata>
<g transform="translate(0.000000,385.000000) scale(0.100000,-0.100000)"
fill="#000000" stroke="none">
<path d="M1936 3834 c-59 -19 -111 -51 -152 -95 -78 -86 -94 -146 -94 -347 0
-143 -1 -154 -17 -147 -150 63 -273 87 -443 87 -335 1 -714 -124 -935 -308
-108 -91 -201 -239 -241 -384 -25 -91 -25 -287 0 -395 54 -236 176 -479 383
-762 203 -280 384 -489 873 -1008 353 -374 340 -359 340 -417 l0 -50 38 6 c20
3 112 15 203 26 620 74 1227 238 1630 441 115 57 289 166 289 180 0 5 -76 110
-168 234 l-169 224 -44 -30 c-183 -123 -500 -248 -860 -339 -146 -37 -261 -62
-266 -57 -1 2 8 91 21 198 25 198 45 442 49 604 l2 90 638 3 637 2 0 285 0
285 -655 0 -655 0 -4 23 c-3 12 -14 68 -26 124 -11 57 -27 124 -35 150 -12 38
-15 122 -15 401 0 193 4 352 8 352 16 0 262 -72 397 -117 275 -90 578 -223
755 -332 36 -22 68 -37 72 -33 24 25 306 467 302 474 -11 17 -214 132 -349
198 -359 174 -862 340 -1303 431 -111 22 -140 23 -206 3z m-598 -1084 c122
-23 237 -116 305 -246 l37 -72 -11 -738 c-6 -406 -12 -740 -13 -742 -4 -3
-278 292 -416 448 -315 356 -538 689 -605 903 -28 89 -33 183 -11 226 72 139
481 266 714 221z"/>
</g>
</svg>
